{
	"asset":{
		"version":"2.0",
		"generator":"Sketchfab-14.37.0",
		"copyright":""
	},
	"scenes":[{
		"nodes":[0,
		1]
	}],
	"nodes":[{
		"name":"ducky_duckMAT_0",
		"translation":[0.0,
		1.0529340505599976,
		1.6932801827351796e-7],
		"rotation":[-8.040770893558147e-8,
		0.0,
		0.0,
		-1.0],
		"scale":[0.009999999776482582,
		0.009999999776482582,
		0.009999999776482582],
		"children":[2]
	},
	{
		"name":"Root",
		"translation":[0.0,
		-0.0012920752633363009,
		-0.11777615547180176],
		"rotation":[0.0,
		0.0,
		0.0,
		-1.0],
		"scale":[1.0,
		1.0,
		1.0],
		"children":[3,
		4,
		5]
	},
	{
		"name":"ducky_duckMAT_0",
		"mesh":0,
		"skin":0
	},
	{
		"name":"Joint.1",
		"translation":[-1.776356799695581e-17,
		0.5398868918418884,
		0.017914650961756707],
		"rotation":[4.440892098500626e-16,
		-2.220446049250313e-16,
		-9.860761315262648e-32,
		-1.0],
		"scale":[1.0,
		1.0,
		1.0],
		"children":[6]
	},
	{
		"name":"Joint.6",
		"translation":[-1.776356799695581e-17,
		0.5398868918418884,
		0.017914650961756707],
		"rotation":[7.105427357601002e-15,
		-5.551115123125783e-16,
		-3.944304526105059e-30,
		-1.0],
		"scale":[1.0,
		1.0,
		1.0],
		"children":[7]
	},
	{
		"name":"Joint.9",
		"translation":[-1.776356799695581e-17,
		0.5398868918418884,
		0.017914650961756707],
		"rotation":[0.0,
		0.0,
		0.0,
		-1.0],
		"scale":[1.0,
		1.0,
		1.0],
		"children":[8]
	},
	{
		"name":"Joint.2",
		"translation":[-7.217277899467255e-17,
		0.49666932225227358,
		0.24251864850521089],
		"rotation":[8.326672684688674e-17,
		0.0,
		0.0,
		-1.0],
		"scale":[1.0,
		1.0,
		1.0],
		"children":[9]
	},
	{
		"name":"Joint.7",
		"translation":[-1.236443851018493e-15,
		-0.0025920323096215727,
		-0.6303104162216187],
		"rotation":[0.0,
		0.0,
		0.0,
		-1.0],
		"scale":[1.0,
		1.0,
		1.0],
		"children":[10]
	},
	{
		"name":"Joint.10",
		"translation":[-1.7527745951157435e-15,
		-0.012540462426841259,
		0.5993297696113586],
		"rotation":[7.754553544888618e-17,
		0.0,
		0.0,
		-1.0],
		"scale":[1.0,
		1.0,
		1.0],
		"children":[11]
	},
	{
		"name":"Joint.3",
		"translation":[3.5282791076128195e-15,
		0.545235276222229,
		0.09502168744802475],
		"rotation":[1.3877787807814457e-16,
		0.0,
		0.0,
		-1.0],
		"scale":[1.0,
		1.0,
		1.0],
		"children":[12]
	},
	{
		"name":"Joint.8",
		"translation":[9.977478065482156e-15,
		0.39041921496391299,
		-0.3149133324623108],
		"rotation":[0.0,
		0.0,
		0.0,
		-1.0],
		"scale":[1.0,
		1.0,
		1.0]
	},
	{
		"name":"Joint.11",
		"translation":[-2.2331873850145457e-10,
		-0.056198060512542728,
		0.43373045325279238],
		"rotation":[-4.440892098500626e-16,
		0.0,
		0.0,
		-1.0],
		"scale":[1.0,
		1.0,
		1.0]
	},
	{
		"name":"Joint.4",
		"translation":[-1.2032789112434613e-15,
		-0.1851298213005066,
		0.509543240070343],
		"rotation":[8.326672684688674e-17,
		0.0,
		0.0,
		-1.0],
		"scale":[1.0,
		1.0,
		1.0],
		"children":[13]
	},
	{
		"name":"Joint.5",
		"translation":[3.4788920633133104e-9,
		0.1869032382965088,
		0.3520815372467041],
		"rotation":[0.0,
		0.0,
		0.0,
		-1.0],
		"scale":[1.0,
		1.0,
		1.0]
	}],
	"meshes":[{
		"name":"ducky_duckMAT_0",
		"primitives":[{
			"attributes":{
				"POSITION":1,
				"NORMAL":2,
				"TEXCOORD_0":3,
				"JOINTS_0":4,
				"WEIGHTS_0":5
			},
			"indices":0,
			"material":0
		}]
	}],
	"skins":[{
		"inverseBindMatrices":6,
		"joints":[1,
		3,
		6,
		9,
		12,
		13,
		4,
		7,
		10,
		5,
		8,
		11]
	}],
	"accessors":[{
		"min":[0],
		"bufferView":0,
		"type":"SCALAR",
		"componentType":5123,
		"count":7332,
		"byteOffset":0,
		"max":[7331]
	},
	{
		"min":[-98.94676208496094,
		-105.54265594482422,
		-120.13285827636719],
		"bufferView":1,
		"type":"VEC3",
		"componentType":5126,
		"count":7332,
		"byteOffset":0,
		"max":[98.94676208496094,
		105.48229217529297,
		117.23546600341797]
	},
	{
		"min":[-0.9996933341026306,
		-1.0,
		-0.9999755620956421],
		"bufferView":1,
		"type":"VEC3",
		"componentType":5126,
		"count":7332,
		"byteOffset":12,
		"max":[0.9996933341026306,
		0.9999364018440247,
		0.9999992847442627]
	},
	{
		"min":[0.006406307220458984,
		0.03447151184082031],
		"bufferView":1,
		"type":"VEC2",
		"componentType":5126,
		"count":7332,
		"byteOffset":24,
		"max":[0.99359130859375,
		0.8014068603515625]
	},
	{
		"min":[0,
		0,
		0,
		0],
		"bufferView":2,
		"type":"VEC4",
		"componentType":5123,
		"count":7332,
		"byteOffset":0,
		"max":[10,
		10,
		10,
		10]
	},
	{
		"min":[0.29344624280929568,
		0.015106432139873505,
		0.0,
		0.0],
		"bufferView":3,
		"type":"VEC4",
		"componentType":5126,
		"count":7332,
		"byteOffset":0,
		"max":[0.9848935604095459,
		0.49747464060783389,
		0.3005111813545227,
		0.20251773297786714]
	},
	{
		"min":[0.009999999776482582,
		-2.788594411007111e-27,
		-4.898587162186488e-18,
		0.0,
		-8.881783998477906e-18,
		0.009999999776482582,
		1.608154165388953e-9,
		0.0,
		-1.1102229584507076e-17,
		-1.6081542764112556e-9,
		0.009999999776482582,
		0.0,
		-3.4788940617147547e-9,
		-0.5293387770652771,
		-1.0993034839630128,
		1.0],
		"bufferView":4,
		"type":"MAT4",
		"componentType":5126,
		"count":12,
		"byteOffset":0,
		"max":[0.009999999776482582,
		8.881783998477906e-18,
		1.1102230411687688e-17,
		0.0,
		0.0,
		0.009999999776482582,
		1.6081542764112556e-9,
		0.0,
		4.8985884029574068e-18,
		-1.608154165388953e-9,
		0.009999999776482582,
		0.0,
		2.2331958504651085e-10,
		1.054226040840149,
		1.0450854301452637,
		1.0]
	}],
	"bufferViews":[{
		"buffer":0,
		"byteOffset":0,
		"byteLength":14664,
		"target":34963
	},
	{
		"buffer":0,
		"byteOffset":14664,
		"byteLength":234624,
		"target":34962,
		"byteStride":32
	},
	{
		"buffer":0,
		"byteOffset":249288,
		"byteLength":58656,
		"target":34962
	},
	{
		"buffer":0,
		"byteOffset":307944,
		"byteLength":117312,
		"target":34962
	},
	{
		"buffer":1,
		"byteOffset":0,
		"byteLength":768
	}],
	"buffers":[{
		"uri":"data:application/octet-stream;base64,",
		"byteLength":425256
	},
	{
		"uri":"data:application/octet-stream;base64,",
		"byteLength":768
	}],
	"images":[{
		"uri":"data:image/png;base64,"
	},
	{
		"uri":"data:image/png;base64,"
	}],
	"samplers":[{
		"magFilter":9729,
		"minFilter":9729,
		"wrapS":10497,
		"wrapT":10497
	},
	{
		"magFilter":9729,
		"minFilter":9729,
		"wrapS":10497,
		"wrapT":10497
	}],
	"textures":[{
		"sampler":0,
		"source":0
	},
	{
		"sampler":1,
		"source":1
	}],
	"materials":[{
		"pbrMetallicRoughness":{
			"baseColorTexture":{
				"index":0
			},
			"baseColorFactor":[1.0,
			1.0,
			1.0,
			1.0],
			"metallicFactor":1.0,
			"roughnessFactor":1.0
		},
		"normalTexture":{
			"index":1,
			"scale":1.0
		},
		"emissiveFactor":[0.0,
		0.0,
		0.0],
		"alphaMode":"OPAQUE",
		"doubleSided":false,
		"name":"Mat"
	}]
}