{
	"asset":{
		"version":"2.0",
		"generator":"Sketchfab-14.37.0",
		"copyright":""
	},
	"scenes":[{
		"nodes":[0,
		1]
	}],
	"nodes":[{
		"name":"ducky_duckMAT_0",
		"translation":[0.0,
		1.0529340505599976,
		1.6932801827351796e-7],
		"rotation":[-8.040770893558147e-8,
		0.0,
		0.0,
		-1.0],
		"scale":[0.009999999776482582,
		0.009999999776482582,
		0.009999999776482582],
		"children":[2]
	},
	{
		"name":"Root",
		"translation":[0.0,
		-0.0025217970833182337,
		-0.0035513450857251884],
		"rotation":[0.0,
		0.0,
		0.0,
		-1.0],
		"scale":[1.0,
		1.0,
		1.0],
		"children":[3,
		4]
	},
	{
		"name":"ducky_duckMAT_0",
		"mesh":0,
		"skin":0
	},
	{
		"name":"Joint.1",
		"translation":[0.0,
		0.6242151856422424,
		0.0],
		"rotation":[-0.17714278399944306,
		0.0,
		0.0,
		-0.9841851592063904],
		"scale":[1.0,
		1.0,
		1.0],
		"children":[5]
	},
	{
		"name":"Joint.6",
		"translation":[0.0,
		0.6242151856422424,
		0.0],
		"rotation":[0.7367210984230042,
		-8.651626286990946e-17,
		8.651626286990946e-17,
		0.6761967539787293],
		"scale":[1.0,
		1.0,
		1.0],
		"children":[6]
	},
	{
		"name":"Joint.2",
		"translation":[0.0,
		0.5216343402862549,
		-3.552713599391162e-17],
		"rotation":[0.1634209007024765,
		0.0,
		0.0,
		-0.9865564703941345],
		"scale":[1.0,
		1.0,
		1.0],
		"children":[7]
	},
	{
		"name":"Joint.7",
		"translation":[0.0,
		0.9252173900604248,
		2.4563684155133793e-17],
		"rotation":[0.0,
		0.0,
		0.0,
		-1.0],
		"scale":[1.0,
		1.0,
		1.0]
	},
	{
		"name":"Joint.3",
		"translation":[0.0,
		0.45534414052963259,
		0.0],
		"rotation":[0.7666126489639282,
		-8.625937365887499e-17,
		8.625937365887499e-17,
		0.6421098113059998],
		"scale":[1.0,
		1.0,
		1.0],
		"children":[8]
	},
	{
		"name":"Joint.4",
		"translation":[0.0,
		0.6088942289352417,
		-2.248201631483387e-17],
		"rotation":[0.29577428102493288,
		0.0,
		0.0,
		-0.9552578330039978],
		"scale":[1.0,
		1.0,
		1.0],
		"children":[9]
	},
	{
		"name":"Joint.5",
		"translation":[0.0,
		0.3424045741558075,
		9.679756863601686e-18],
		"rotation":[0.0,
		0.0,
		0.0,
		-1.0],
		"scale":[1.0,
		1.0,
		1.0]
	}],
	"meshes":[{
		"name":"ducky_duckMAT_0",
		"primitives":[{
			"attributes":{
				"POSITION":1,
				"NORMAL":2,
				"TEXCOORD_0":3,
				"JOINTS_0":4,
				"WEIGHTS_0":5
			},
			"indices":0,
			"material":0
		}]
	}],
	"skins":[{
		"inverseBindMatrices":6,
		"joints":[1,
		3,
		5,
		7,
		8,
		9,
		4,
		6]
	}],
	"accessors":[{
		"bufferView":0,
		"type":"SCALAR",
		"componentType":5123,
		"count":7332,
		"byteOffset":0,
		"min":[0],
		"max":[7331]
	},
	{
		"bufferView":1,
		"type":"VEC3",
		"componentType":5126,
		"count":7332,
		"byteOffset":0,
		"min":[-98.94676208496094,
		-105.54265594482422,
		-120.13285827636719],
		"max":[98.94676208496094,
		105.48229217529297,
		117.23546600341797]
	},
	{
		"bufferView":1,
		"type":"VEC3",
		"componentType":5126,
		"count":7332,
		"byteOffset":12,
		"min":[-0.9996933341026306,
		-1.0,
		-0.9999755620956421],
		"max":[0.9996933341026306,
		0.9999364018440247,
		0.9999992847442627]
	},
	{
		"bufferView":1,
		"type":"VEC2",
		"componentType":5126,
		"count":7332,
		"byteOffset":24,
		"min":[0.006406307220458984,
		0.03447151184082031],
		"max":[0.99359130859375,
		0.8014068603515625]
	},
	{
		"bufferView":2,
		"type":"VEC4",
		"componentType":5123,
		"count":7332,
		"byteOffset":0,
		"min":[0,
		0,
		0,
		0],
		"max":[6,
		6,
		6,
		6]
	},
	{
		"bufferView":3,
		"type":"VEC4",
		"componentType":5126,
		"count":7332,
		"byteOffset":0,
		"min":[0.30791181325912478,
		0.01121538132429123,
		0.0,
		0.0],
		"max":[0.9836118221282959,
		0.49716946482658389,
		0.2993820011615753,
		0.16858167946338654]
	},
	{
		"bufferView":4,
		"type":"MAT4",
		"componentType":5126,
		"count":8,
		"byteOffset":0,
		"min":[0.009999999776482582,
		-8.735249396506703e-27,
		-1.2432751200249387e-27,
		0.0,
		0.0,
		-0.002027373295277357,
		-0.009963368065655232,
		0.0,
		0.0,
		-1.608154165388953e-9,
		-0.002027373295277357,
		0.0,
		-2.6859092156994969e-17,
		-1.2189582586288453,
		-0.4299646317958832,
		1.0],
		"max":[0.009999999776482582,
		1.845448875722391e-26,
		4.965632425580595e-19,
		0.0,
		4.862511437528789e-19,
		0.009999999776482582,
		1.608154165388953e-9,
		0.0,
		1.0067190659084113e-19,
		0.009963368065655232,
		0.009999999776482582,
		0.0,
		9.005742803533265e-18,
		1.0554558038711548,
		0.5408997535705566,
		1.0]
	}],
	"bufferViews":[{
		"target":34963,
		"buffer":0,
		"byteOffset":0,
		"byteLength":14664
	},
	{
		"target":34962,
		"buffer":0,
		"byteOffset":14664,
		"byteLength":234624,
		"byteStride":32
	},
	{
		"target":34962,
		"buffer":0,
		"byteOffset":249288,
		"byteLength":58656
	},
	{
		"target":34962,
		"buffer":0,
		"byteOffset":307944,
		"byteLength":117312
	},
	{
		"buffer":1,
		"byteOffset":0,
		"byteLength":512
	}],
	"buffers":[{
		"uri":"data:application/octet-stream;base64,",
		"byteLength":425256
	},
	{
		"uri":"data:application/octet-stream;base64,",
		"byteLength":512
	}],
	"images":[{
		"uri":"data:image/png;base64,"
	},
	{
		"uri":"data:image/png;base64,"
	}],
	"samplers":[{
		"magFilter":9729,
		"minFilter":9729,
		"wrapS":10497,
		"wrapT":10497
	},
	{
		"magFilter":9729,
		"minFilter":9729,
		"wrapS":10497,
		"wrapT":10497
	}],
	"textures":[{
		"sampler":0,
		"source":0
	},
	{
		"sampler":1,
		"source":1
	}],
	"materials":[{
		"emissiveFactor":[0.0,
		0.0,
		0.0],
		"pbrMetallicRoughness":{
			"baseColorTexture":{
				"index":0
			},
			"baseColorFactor":[1.0,
			1.0,
			1.0,
			1.0],
			"metallicFactor":1.0,
			"roughnessFactor":1.0
		},
		"normalTexture":{
			"index":1,
			"scale":1.0
		},
		"alphaMode":"OPAQUE",
		"doubleSided":false,
		"name":"Mat"
	}]
}